{
	"asset":{
		"generator":"Khronos glTF Blender I/O v3.6.28",
		"version":"2.0"
	},
	"scene":0,
	"scenes":[
		{
			"name":"Scene",
			"nodes":[
				4,
				5
			]
		}
	],
	"nodes":[
		{
			"mesh":0,
			"name":"SchoolChair_SchoolChair_Mat_0.010",
			"rotation":[
				0,
				0,
				0.6873243451118469,
				0.7263506650924683
			],
			"scale":[
				0.011123054660856724,
				0.01304234191775322,
				0.013073159381747246
			],
			"translation":[
				0.017090480774641037,
				-0.16728214919567108,
				0.060523126274347305
			]
		},
		{
			"children":[
				0
			],
			"name":"SchoolChair.012",
			"rotation":[
				0,
				-0.7071065306663513,
				-0.7071070671081543,
				5.338510078445324e-08
			],
			"scale":[
				119.00016021728516,
				119.00005340576172,
				119.00005340576172
			]
		},
		{
			"children":[
				1
			],
			"name":"RootNode.042"
		},
		{
			"children":[
				2
			],
			"name":"e5953a730cbb4503affd601be42f7e80.fbx.012",
			"rotation":[
				0.70710688829422,
				0,
				0,
				0.7071066498756409
			]
		},
		{
			"children":[
				3
			],
			"name":"Sketchfab_model.046",
			"rotation":[
				-0.70710688829422,
				0,
				0,
				0.7071066498756409
			],
			"translation":[
				4.666864395141602,
				-6.5873823165893555,
				19.87883758544922
			]
		},
		{
			"mesh":1,
			"name":"Cube.029",
			"scale":[
				0.5205304026603699,
				0.6008642315864563,
				0.38457268476486206
			],
			"translation":[
				3.719385862350464,
				1.4860608577728271,
				4.278311729431152
			]
		}
	],
	"materials":[
		{
			"doubleSided":true,
			"name":"Material.068",
			"pbrMetallicRoughness":{
				"baseColorFactor":[
					0.08353149890899658,
					0.01532570831477642,
					0,
					1
				],
				"metallicFactor":0,
				"roughnessFactor":0.5
			}
		},
		{
			"doubleSided":true,
			"name":"Material.079",
			"pbrMetallicRoughness":{
				"baseColorFactor":[
					0.8000000715255737,
					0.7022529244422913,
					0.5518839359283447,
					1
				],
				"metallicFactor":0,
				"roughnessFactor":0.5
			}
		},
		{
			"doubleSided":true,
			"name":"Material.080",
			"pbrMetallicRoughness":{
				"baseColorFactor":[
					0.012217042036354542,
					0.012217042036354542,
					0.012217042036354542,
					1
				],
				"metallicFactor":0,
				"roughnessFactor":0.5
			}
		}
	],
	"meshes":[
		{
			"name":"SchoolChair_SchoolChair_Mat_0.010",
			"primitives":[
				{
					"attributes":{
						"POSITION":0,
						"NORMAL":1,
						"TEXCOORD_0":2
					},
					"indices":3,
					"material":0
				}
			]
		},
		{
			"name":"Cube.153",
			"primitives":[
				{
					"attributes":{
						"POSITION":4,
						"NORMAL":5,
						"TEXCOORD_0":6
					},
					"indices":7,
					"material":1
				},
				{
					"attributes":{
						"POSITION":8,
						"NORMAL":9,
						"TEXCOORD_0":10
					},
					"indices":11,
					"material":2
				}
			]
		}
	],
	"accessors":[
		{
			"bufferView":0,
			"componentType":5126,
			"count":2324,
			"max":[
				0.19877447187900543,
				0.21370893716812134,
				0.7359760403633118
			],
			"min":[
				-0.19877448678016663,
				-0.24398592114448547,
				0
			],
			"type":"VEC3"
		},
		{
			"bufferView":1,
			"componentType":5126,
			"count":2324,
			"type":"VEC3"
		},
		{
			"bufferView":2,
			"componentType":5126,
			"count":2324,
			"type":"VEC2"
		},
		{
			"bufferView":3,
			"componentType":5123,
			"count":11376,
			"type":"SCALAR"
		},
		{
			"bufferView":4,
			"componentType":5126,
			"count":24,
			"max":[
				0.8735843896865845,
				0.228019118309021,
				-9.229931831359863
			],
			"min":[
				-1.1154193878173828,
				0.04312145709991455,
				-13.17085075378418
			],
			"type":"VEC3"
		},
		{
			"bufferView":5,
			"componentType":5126,
			"count":24,
			"type":"VEC3"
		},
		{
			"bufferView":6,
			"componentType":5126,
			"count":24,
			"type":"VEC2"
		},
		{
			"bufferView":7,
			"componentType":5123,
			"count":36,
			"type":"SCALAR"
		},
		{
			"bufferView":8,
			"componentType":5126,
			"count":80,
			"max":[
				0.7515718340873718,
				0.11627304553985596,
				-9.364020347595215
			],
			"min":[
				-1.0579545497894287,
				-1.4638500213623047,
				-12.986567497253418
			],
			"type":"VEC3"
		},
		{
			"bufferView":9,
			"componentType":5126,
			"count":80,
			"type":"VEC3"
		},
		{
			"bufferView":10,
			"componentType":5126,
			"count":80,
			"type":"VEC2"
		},
		{
			"bufferView":11,
			"componentType":5123,
			"count":120,
			"type":"SCALAR"
		}
	],
	"bufferViews":[
		{
			"buffer":0,
			"byteLength":27888,
			"byteOffset":0,
			"target":34962
		},
		{
			"buffer":0,
			"byteLength":27888,
			"byteOffset":27888,
			"target":34962
		},
		{
			"buffer":0,
			"byteLength":18592,
			"byteOffset":55776,
			"target":34962
		},
		{
			"buffer":0,
			"byteLength":22752,
			"byteOffset":74368,
			"target":34963
		},
		{
			"buffer":0,
			"byteLength":288,
			"byteOffset":97120,
			"target":34962
		},
		{
			"buffer":0,
			"byteLength":288,
			"byteOffset":97408,
			"target":34962
		},
		{
			"buffer":0,
			"byteLength":192,
			"byteOffset":97696,
			"target":34962
		},
		{
			"buffer":0,
			"byteLength":72,
			"byteOffset":97888,
			"target":34963
		},
		{
			"buffer":0,
			"byteLength":960,
			"byteOffset":97960,
			"target":34962
		},
		{
			"buffer":0,
			"byteLength":960,
			"byteOffset":98920,
			"target":34962
		},
		{
			"buffer":0,
			"byteLength":640,
			"byteOffset":99880,
			"target":34962
		},
		{
			"buffer":0,
			"byteLength":240,
			"byteOffset":100520,
			"target":34963
		}
	],
	"buffers":[
		{
			"byteLength":100760,
			"uri":"data:application/octet-stream;base64,"
		}
	]
}
